M48
INCH
T01C0.0150
T02C0.1870
T03C0.0900
T04C0.0600
T05C0.0300
T06C0.0380
T07C0.0400
T08C0.0870
%
T01
X-024960Y-009737
X-024570Y-009123
X-019930Y-007460
X-020930Y-006300
X-020940Y-007480
X-020940Y-011090
T02
X-028996Y-002185
X-013996Y-002185
X-013996Y-017185
X-028996Y-017185
T03
X-017700Y-014600
X-014200Y-008900
X-014200Y-012900
X-021700Y-014500
T04
X-029770Y-007010
X-029770Y-005040
X-029785Y-011485
X-029785Y-009515
X-018770Y-017880
X-020740Y-017880
T05
X-023100Y-007100
X-027100Y-007100
X-023100Y-011300
X-027100Y-011300
X-022700Y-008200
X-022700Y-010200
X-019300Y-006300
X-020481Y-006300
X-018281Y-006300
X-017100Y-006300
X-022800Y-000500
X-026800Y-000500
X-023400Y-012200
X-023400Y-014200
X-022200Y-007100
X-022200Y-005100
T06
X-016200Y-004700
X-016200Y-002700
X-022900Y-002000
X-022900Y-004000
X-020568Y-002700
X-019584Y-002700
X-018600Y-002700
T07
X-025500Y-002300
X-026500Y-002300
T08
X-021700Y-012900
X-017700Y-012900
X-015800Y-012900
X-015800Y-008900
M30
